<svg version="1" xmlns="http://www.w3.org/2000/svg" width="1365.333" height="1365.333" viewBox="0 0 1024.000000 1024.000000"><path d="M481 12.6c-1.9.2-9.1.9-16 1.4-25.3 2.2-51 6.7-77.6 13.5C314.5 46.2 248.5 80.2 189 129.9c-14.8 12.3-46.8 44.3-59.1 59.1C68.6 262.4 30.5 347.1 17 439.5c-3.8 26.1-4.5 37.6-4.5 72.5s.7 46.4 4.5 72.5c2.8 19.2 5.6 33 10.5 52.1C46.2 709.5 80.2 775.5 129.9 835c12.3 14.8 44.3 46.8 59.1 59.1 73.4 61.3 158.1 99.4 250.5 112.9 26.1 3.8 37.6 4.5 72.5 4.5s46.4-.7 72.5-4.5c19.2-2.8 33-5.6 52.1-10.5 72.9-18.7 138.9-52.7 198.4-102.4 14.8-12.3 46.8-44.3 59.1-59.1 61.3-73.4 99.4-158.1 112.9-250.5 3.8-26.1 4.5-37.6 4.5-72.5s-.7-46.4-4.5-72.5c-10.7-72.9-36.8-141.5-77.5-203-19.9-30.1-37.4-51.5-64-78-26.5-26.6-47.9-44.1-78-64-68.2-45.1-141.4-71.1-227-80.6-9.7-1-72.4-2.1-79.5-1.3zM544.5 86c177.3 13.2 328.9 136.4 378.1 307.7 24.8 86.5 21.5 181.6-9.4 265.3-47.3 128.4-152.1 226-282.9 263.6-76.6 22-160 22-236.6 0C252.7 882 142 771.3 101.4 630.3c-24.8-86.5-21.5-181.6 9.4-265.3 47.4-128.5 152-225.9 283.2-263.7 25.6-7.3 58-13.2 83.5-15.2 16.1-1.2 50.9-1.2 67-.1z"/><path d="M501.2 163c-3.4 1.6-29 17.6-56.8 35.7-72.7 47.1-135.1 87.5-150.6 97.3-48.9 31-52.3 34-58.9 52.2C225 375.3 219 440.5 219 522c0 52.5 1.9 90.9 6.1 120.7 3.9 28.5 8.5 40.1 19.8 50.5 3.8 3.5 17.7 13.3 30.8 21.7 27.7 18 100.1 65.5 169.3 111.2 26.7 17.5 51 33.1 54 34.5 3 1.4 6.3 3 7.2 3.5 2.3 1.2 11.3 1.2 13.6 0 .9-.5 4.2-2.1 7.2-3.5s27.2-16.9 53.7-34.3c68.8-45.4 135.4-89.1 167.3-109.9 31.5-20.5 38.4-26.4 43.5-36.8 8.1-16.4 12.2-45.7 14.6-102.6 1.3-31 .7-108.4-1-132.5-.6-7.7-1.3-17.6-1.6-22-1.9-27.2-6.8-57.5-11.6-72-4.4-13.2-8.7-19.7-17.9-26.9-4.8-3.8-51.1-34.1-56.5-37-2.1-1.1-36.3-23.2-132.5-85.8-28.9-18.7-55.7-35.6-59.7-37.4-9.3-4.4-15.2-4.5-24.1-.4zm-12.6 60.8c3.4 2.2 3.8 5.8 4.4 32.7.6 27.6.2 34-2.6 38.3-2.9 4.5-8.6 5.9-37.9 9.6-29.6 3.8-59.3 7.4-66 8.2-2.2.2-7.8.8-12.5 1.4-13 1.5-23.5 1.3-25-.5-1.1-1.3-.8-2.1 2.1-5.1 5.6-5.8 9-8.1 93.4-62.1 35.6-22.8 40.2-25.2 44.1-22.5zm58.2 1.1c5.1 2.6 16 9.3 39.7 24.6 11 7 31.9 20.5 46.5 29.8 32.5 20.9 38.2 24.9 42 29.5 2.8 3.4 2.9 3.8 1.3 4.9-3.1 2.4-21.3 1.1-66.8-4.7-4.4-.6-20.6-2.6-36-4.6-35.6-4.5-38.3-5.6-40.3-16.5-1.3-7.2.1-57.9 1.7-60.9 2.6-4.6 5.8-5.2 11.9-2.1zm-77 117.7c4.7 3.3 3.1 7.7-13.8 37.4-6.4 11.3-11.9 21.2-12.2 22-.7 2-60.6 105.7-62.8 109-2 2.9-11.3 18.4-18.8 31.5-5.6 9.7-11.7 18.2-14.3 19.8-2.5 1.6-6.5 0-8.8-3.5-1.1-1.8-10.3-28.3-20.5-58.8-41-123.5-41.4-124.8-38.6-129.9 2.4-4.5 9.6-6.4 40-10.5 6.3-.9 16.2-2.3 22-3.1 21.8-3 40.4-5.6 69.5-9.6 16.5-2.2 32.3-4.4 35-4.9 9.2-1.4 20.8-1.1 23.3.6zM579 342c3.6.6 19.8 2.8 36 5 16.2 2.1 30.9 4.2 32.5 4.4 1.7.3 16.3 2.4 32.5 4.6 59.1 8.1 63.3 9 66 14.1 2.8 5.1 2.4 6.3-39.1 131.3-9.8 29.6-18.8 55.3-20 57.2-2.2 3.6-6.2 5.3-8.8 3.7-2.6-1.6-8.7-10.1-14.3-19.8-2.8-5-9-15.3-13.6-23-10.1-16.6-67.2-115.3-68-117.5-.3-.8-5.8-10.7-12.2-22-16.9-29.7-18.5-34.1-13.8-37.4 2.6-1.9 12.8-2.1 22.8-.6zm-61.2 20.5c1.7 1.4 5.4 6.2 8.2 10.8 2.9 4.5 6.2 9.8 7.5 11.7 1.2 1.9 6.2 10.2 11 18.5 4.9 8.2 13 22 18 30.5 18.7 31.5 26.5 45.2 42.9 74.5 9.3 16.5 19.5 34.6 22.7 40.2 3.3 5.6 5.9 10.4 5.9 10.7 0 .2 3.4 6.6 7.5 14.2 5.9 11 7.5 14.8 7.5 18.1 0 6.4-2.2 7.4-18.8 8.5-18 1.1-217.9 1.1-234.9 0-16-1.1-18.3-2.1-18.3-8.4 0-4 1.1-6.5 15-32.3 1.4-2.8 5.8-10.6 9.7-17.5 3.8-6.9 8.4-15 10.1-18 1.6-3 7.3-13.1 12.6-22.4 5.3-9.3 9.6-17 9.6-17.2 0-.2 10.4-18.1 23.2-39.6 12.7-21.6 25.9-44.1 29.3-49.9 9.9-16.9 19-30.3 22-32.7 3.6-2.8 5.7-2.8 9.3.3zM275.3 495.8c3.1 3.3 8.6 17.4 24 62.2 12.6 36.6 14.4 43.4 12.8 48.2-1.6 4.9-7.1 9.7-19.1 16.7-16.1 9.5-19.6 10-23 3.5-2.1-4.1-2.3-125.1-.1-130.2.7-1.7 1.7-3.2 2-3.2.4 0 1.9 1.3 3.4 2.8zm480.8.4c2.2 5.1 2 126.1-.1 130.2-2.2 4.3-4.1 5.2-8.7 3.8-6.1-1.8-25.8-13.9-29.7-18.2-4.9-5.5-5.3-9-2.2-19.9 2.7-9.3 21.2-63 28.2-81.9C747 501 751.8 493 754 493c.4 0 1.4 1.5 2.1 3.2zM635 636.1c7.8 2.6 8.7 5.8 3.9 13.3-4.4 7-26.3 35.8-61.7 81.1-5.2 6.6-12.8 16.5-17 22-16.7 22-33 42.3-38.3 47.7-4.6 4.8-6.2 5.8-8.9 5.8s-4.3-1-8.9-5.8c-5.3-5.4-21.6-25.7-38.3-47.7-4.2-5.5-11.8-15.4-17-22-35.4-45.3-57.3-74.1-61.7-81.1-4.5-7-3.9-10.2 2.4-13 3.5-1.5 51.5-2.1 148-1.8 69.8.2 94.9.6 97.5 1.5zm-297.2 18.1c8 7.5 65.2 80.9 69.1 88.7 2.3 4.3 2.7 7.1 1.1 7.1-2.2 0-11.3-4.2-19.6-9.1-8.9-5.3-72.7-47.4-86-56.7-14.2-10.1-12.2-15.1 11.3-28.7 12.7-7.3 17.5-7.6 24.1-1.3zm374.5 1.3c11.5 6.7 18.2 11.8 19.6 15.3 2.1 5-.3 7.8-15.6 18.4-18.4 12.6-69.7 46.2-80.3 52.5-8.1 4.9-17.7 8.9-18.8 7.9-1.8-1.9 4.2-11.6 19.3-31.2 18.2-23.6 48.3-61 51.7-64.2 6.6-6.3 11.4-6 24.1 1.3z"/></svg>